HIERARCHY
ROOT Hips
{
	OFFSET 0.00000 0.00000 0.00000
	CHANNELS 6 Xposition Yposition Zposition Zrotation Yrotation Xrotation 
	JOINT LHipJoint
	{
		OFFSET 0 0 0
		CHANNELS 3 Zrotation Yrotation Xrotation
		JOINT LeftUpLeg
		{
			OFFSET 1.52977 -1.71332 0.88991
			CHANNELS 3 Zrotation Yrotation Xrotation
			JOINT LeftLeg
			{
				OFFSET 2.23949 -6.15296 0.00000
				CHANNELS 3 Zrotation Yrotation Xrotation
				JOINT LeftFoot
				{
					OFFSET 2.68396 -7.37412 0.00000
					CHANNELS 3 Zrotation Yrotation Xrotation
					JOINT LeftToeBase
					{
						OFFSET 0.20538 -0.56428 2.52710
						CHANNELS 3 Zrotation Yrotation Xrotation
						End Site
						{
							OFFSET 0.00000 -0.00000 1.29919
						}
					}
				}
			}
		}
	}
	JOINT RHipJoint
	{
		OFFSET 0 0 0
		CHANNELS 3 Zrotation Yrotation Xrotation
		JOINT RightUpLeg
		{
			OFFSET -1.45689 -1.71333 0.88991
			CHANNELS 3 Zrotation Yrotation Xrotation
			JOINT RightLeg
			{
				OFFSET -2.36700 -6.50329 0.00000
				CHANNELS 3 Zrotation Yrotation Xrotation
				JOINT RightFoot
				{
					OFFSET -2.69814 -7.41308 0.00000
					CHANNELS 3 Zrotation Yrotation Xrotation
					JOINT RightToeBase
					{
						OFFSET -0.18734 -0.51471 2.37479
						CHANNELS 3 Zrotation Yrotation Xrotation
						End Site
						{
							OFFSET -0.00000 -0.00000 1.22113
						}
					}
				}
			}
		}
	}
	JOINT LowerBack
	{
		OFFSET 0 0 0
		CHANNELS 3 Zrotation Yrotation Xrotation
		JOINT Spine
		{
			OFFSET 0.04294 2.14638 -0.31163
			CHANNELS 3 Zrotation Yrotation Xrotation
			JOINT Spine1
			{
				OFFSET -0.00400 2.17216 0.01486
				CHANNELS 3 Zrotation Yrotation Xrotation
				JOINT Neck
				{
					OFFSET 0 0 0
					CHANNELS 3 Zrotation Yrotation Xrotation
					JOINT Neck1
					{
						OFFSET 0.03869 1.76598 0.14916
						CHANNELS 3 Zrotation Yrotation Xrotation
						JOINT Head
						{
							OFFSET -0.00760 1.75513 -0.18948
							CHANNELS 3 Zrotation Yrotation Xrotation
							End Site
							{
								OFFSET -0.00601 1.82444 -0.08310
							}
						}
					}
				}
				JOINT LeftShoulder
				{
					OFFSET 0 0 0
					CHANNELS 3 Zrotation Yrotation Xrotation
					JOINT LeftArm
					{
						OFFSET 3.73696 0.92058 0.01733
						CHANNELS 3 Zrotation Yrotation Xrotation
						JOINT LeftForeArm
						{
							OFFSET 5.22771 -0.00000 0.00000
							CHANNELS 3 Zrotation Yrotation Xrotation
							JOINT LeftHand
							{
								OFFSET 3.45251 -0.00000 0.00000
								CHANNELS 3 Zrotation Yrotation Xrotation
								JOINT LeftFingerBase
								{
									OFFSET 0 0 0
									CHANNELS 3 Zrotation Yrotation Xrotation
									JOINT LeftHandIndex1
									{
										OFFSET 0.55212 -0.00000 0.00000
										CHANNELS 3 Zrotation Yrotation Xrotation
										End Site
										{
											OFFSET 0.44513 -0.00000 0.00000
										}
									}
								}
								JOINT LThumb
								{
									OFFSET 0 0 0
									CHANNELS 3 Zrotation Yrotation Xrotation
									End Site
									{
										OFFSET 0.45193 -0.00000 0.45193
									}
								}
							}
						}
					}
				}
				JOINT RightShoulder
				{
					OFFSET 0 0 0
					CHANNELS 3 Zrotation Yrotation Xrotation
					JOINT RightArm
					{
						OFFSET -3.63819 0.83094 -0.13694
						CHANNELS 3 Zrotation Yrotation Xrotation
						JOINT RightForeArm
						{
							OFFSET -5.23980 -0.00000 -0.00000
							CHANNELS 3 Zrotation Yrotation Xrotation
							JOINT RightHand
							{
								OFFSET -3.48042 -0.00000 -0.00000
								CHANNELS 3 Zrotation Yrotation Xrotation
								JOINT RightFingerBase
								{
									OFFSET 0 0 0
									CHANNELS 3 Zrotation Yrotation Xrotation
									JOINT RightHandIndex1
									{
										OFFSET -0.61871 -0.00000 0.00000
										CHANNELS 3 Zrotation Yrotation Xrotation
										End Site
										{
											OFFSET -0.49882 -0.00000 0.00000
										}
									}
								}
								JOINT RThumb
								{
									OFFSET 0 0 0
									CHANNELS 3 Zrotation Yrotation Xrotation
									End Site
									{
										OFFSET -0.50644 -0.00000 0.50644
									}
								}
							}
						}
					}
				}
			}
		}
	}
}
MOTION
Frames: 6
Frame Time: 0.117647
0.00 0.00 0.00 0 0 0 0 0 0 -21 0 0 0 0 0 0 0 0 0 0 0 0 0 0 21 0 0 0 0 0 0 0 0 0 0 0 0 0 0 0 0 0 0 0 0 0 0 -16 0 0 21 0 0 11 0 0 0 -8 0 0 0 0 0 0 0 0 0 0 0 0 0 0 0 0 0 0 0 0 8 0 0 0 0 0 0 0 0 0 0 0 0 0 0 0 0 0
0.00 0.00 0.00 -3.3093 -87.0499 20.5698 0.0000 0.0000 0.0000 -10.1690 -11.3328 -54.3471 10.0769 17.4529 59.7451 0.2174 -9.7195 -10.0582 0.8322 -5.8197 -16.2620 0.0000 0.0000 0.0000 11.3297 13.4517 -58.5496 -13.2104 -18.8568 69.7779 -0.6011 2.7262 -13.9690 -0.3097 3.5779 -9.8922 2.6291 -1.2259 31.4870 -0.1785 -1.6670 9.4394 -1.0835 -1.1451 -6.5800 3.5097 0.7682 2.9016 -0.5659 0.4781 -27.4741 -0.7696 -0.5157 -9.0471 -0.0000 -0.0000 0.0000 -82.7462 -4.9410 32.5282 28.5350 -39.6042 -10.4630 -0.0000 0.0000 -27.7910 21.0447 12.6323 4.8098 -7.1250 0.0000 -0.0000 -5.6894 43.4106 0.2239 -0.0000 -0.0000 0.0000 87.3455 5.8975 33.6819 -31.8337 42.4142 -12.6285 0.0000 -0.0000 -7.8179 -19.7063 -10.5519 3.7527 7.1250 -0.0000 -0.0000 6.5256 -41.0850 0.6331
0.00 0.00 0.00 -7.6665 -87.3991 22.9397 0.0000 0.0000 0.0000 -8.3793 -10.6628 -55.4921 11.0516 17.9603 62.9491 -0.2660 -9.1156 3.9436 0.9596 -6.2375 -17.4750 0.0000 0.0000 0.0000 8.9429 13.3239 -60.3055 -14.1977 -19.1729 72.8073 0.0152 -2.7898 0.8241 -0.0383 1.2632 -3.4734 2.4923 -1.2259 32.5019 -0.1655 -1.7507 9.7468 -0.9414 -1.2110 -6.6891 3.6221 0.8645 2.8099 -0.6527 0.5996 -27.3434 -0.8284 -0.4584 -8.9800 0.0000 -0.0000 0.0000 -82.8750 -5.0528 31.4908 27.7067 -38.8449 -9.9392 -0.0000 0.0000 -27.4296 21.2447 12.5218 4.8181 -7.1250 0.0000 -0.0000 -5.4893 43.3156 0.2289 0.0000 -0.0000 0.0000 87.1832 6.2245 33.0043 -31.8517 42.4287 -12.6407 0.0000 -0.0000 -7.7762 -20.1772 -10.6225 3.8753 7.1250 -0.0000 -0.0000 6.1230 -41.2026 0.5759
0.00 0.00 0.00 -1.1564 -87.1960 14.6499 0.0000 0.0000 0.0000 -6.8895 -10.6360 -56.5600 11.6201 18.2254 64.7794 0.7409 -4.3704 18.4233 0.8068 -5.7324 -16.0100 0.0000 0.0000 0.0000 7.5621 13.2266 -59.7524 -14.2763 -19.1957 73.0465 -0.0101 -9.0825 6.5512 -0.0864 -1.8959 5.2179 2.5547 -1.4071 33.2718 -0.2748 -1.9976 9.7506 -0.9102 -1.3434 -6.3408 3.5804 0.9004 2.5441 -0.6127 0.6384 -27.1815 -0.8095 -0.4379 -8.8732 0.0000 -0.0000 0.0000 -82.9509 -5.1781 30.9714 27.5905 -38.7365 -9.8664 -0.0000 0.0000 -27.3108 21.3460 12.4577 4.8189 -7.1250 0.0000 -0.0000 -5.3867 43.2588 0.2322 0.0000 -0.0000 0.0000 87.2034 5.7411 32.3957 -32.4456 42.8995 -13.0431 0.0000 -0.0000 -7.6811 -20.3929 -10.5925 3.9094 7.1250 -0.0000 -0.0000 5.9283 -41.1910 0.5591
0.00 0.00 0.00 182.2170 -84.2362 -167.8290 0.0000 0.0000 0.0000 -15.5296 -6.2203 -62.3805 12.0974 18.4315 66.2971 0.2766 -1.9246 10.8311 2.1544 -9.1806 -26.3619 0.0000 0.0000 0.0000 1.6624 16.4619 -68.7460 -19.4606 -19.9930 88.4228 -0.6987 -16.5702 17.7047 -0.0265 -1.0501 2.8868 1.8037 -0.5031 35.1627 -1.0154 -1.4005 10.3025 -1.4603 -1.1415 -6.4221 5.1600 2.2673 2.9208 -2.4246 2.2397 -28.7933 -1.8453 0.2375 -9.4264 0.0000 0.0000 0.0000 -81.6125 -5.4699 28.2399 28.2743 -39.3675 -10.2972 -0.0000 0.0000 -27.5307 21.4961 13.3151 5.1827 -7.1250 0.0000 -0.0000 -5.4032 44.1841 0.1091 0.0000 0.0000 0.0000 88.4897 2.7684 30.7728 -33.2212 43.4994 -13.5741 0.0000 -0.0000 -8.0364 -21.2007 -10.3011 3.9678 7.1250 -0.0000 -0.0000 5.1731 -40.9568 0.5174
0.00 0.00 0.00 129.0140 -85.7716 -112.9280 0.0000 0.0000 0.0000 -13.2972 -11.0991 -63.3882 6.8483 15.2028 48.2984 1.9961 4.8758 25.6265 0.5078 -4.5679 -12.6802 0.0000 0.0000 0.0000 7.4163 16.5728 -58.1379 -15.3634 -19.4766 76.3289 -0.3318 -9.7565 11.5068 -0.0050 0.4571 -1.2559 2.0046 -0.8792 35.8391 -1.6320 -1.7678 10.0440 -2.0738 -1.2662 -6.8587 5.1109 1.5046 3.0205 -3.5304 0.7869 -30.0903 -2.1183 -0.3703 -9.9691 0.0000 0.0000 0.0000 -84.8000 -2.6675 28.0374 25.1082 -36.3144 -8.3539 -0.0000 0.0000 -25.7026 21.8417 12.7458 5.0536 -7.1250 0.0000 -0.0000 -4.9880 43.6196 0.1704 0.0000 0.0000 0.0000 88.3279 2.4620 32.4947 -33.1381 43.4359 -13.5169 0.0000 -0.0000 -7.2899 -21.0125 -9.8483 3.7588 7.1250 -0.0000 -0.0000 5.2730 -40.4594 0.5922
